<?xml version="1.0" encoding="UTF-8"?>
<svg id="_Слой_2" data-name="Слой 2" xmlns="http://www.w3.org/2000/svg" viewBox="0 0 965 413">
  <defs>
    <style>
      .cls-1 {
        fill: #ebebeb;
      }
    </style>
  </defs>
  <g id="_Слой_1-2" data-name="Слой 1">
    <path class="cls-1" d="m401.01,136.99c5.63,15.9,11.99,39.92,11.99,69.51,0,27.53-5.49,49.2-9.28,61.39-4.02,12.94-9.28,25.33-15.65,37.04h-110.59c19.52-15.93,37.52-28.93,74.52-69.93,37.5-41.55,42.49-74.46,49.01-98.01Z"/>
    <path class="cls-1" d="m341.86,362.45c-13.59,11.78-38.32,30.17-73.95,41.26,0,0-30.45,9.28-61.41,9.28C92.45,413,0,320.55,0,206.5S92.45,0,206.5,0c31.19,0,61.4,9.28,61.4,9.28,31.91,9.93,54.71,25.59,68.04,36.32-35.5-13.27-75.33-6.66-103.95,17.4-30.94,26.02-43.88,68.33-33,108h52c1.7-4.15-11-87,58-76,25,1,33.92,40.24,23,68-24,61-118.97,144.13-140,154v45.04c49.95.14,99.91.27,149.86.41Z"/>
    <path class="cls-1" d="m601,145c0-30-10-54-43-54-37,0-47,35.8-47,53v109c.26,3.18,1.22,31.11,25,43,20,10,37,7,60,1v-56.01h-41v-48.53h93v129.57c-7.32,5.91-30,26.97-89,26.97-62,0-101-31-101-88v-121c2.44-53.01,41-93,100-93s94,28,94,98h-51Z"/>
    <rect class="cls-1" x="695" y="52" width="50" height="293"/>
    <path class="cls-1" d="m830,245h-50c-4,67,26,104,86,104,78,0,99-47.84,99-83,0-67-38-77-85-96-28.06-11.35-43-18-43-43,0-22,17.73-36,37-36,30,0,41,23,41,54h49c0-85-50-97-88-97-58,0-90,33-90,80,0,55,25.14,71.17,73,89,51,19,54,31,54,51,0,26-20.28,37-41,37-33,0-42-19-42-60Z"/>
  </g>
</svg>