<?xml version="1.0" encoding="UTF-8"?>
<svg id="_Слой_2" data-name="Слой 2" xmlns="http://www.w3.org/2000/svg" viewBox="0 0 131 131">
  <defs>
    <style>
      .cls-1 {
        fill: #ebebeb;
      }
    </style>
  </defs>
  <g id="_Слой_1-2" data-name="Слой 1">
    <g>
      <path class="cls-1" d="m69.78,130.86C30.3,133.39-2.39,100.7.14,61.22,2.22,28.58,28.58,2.22,61.22.14c39.48-2.52,72.17,30.16,69.64,69.64-2.09,32.64-28.45,59-61.08,61.08Zm-.52-122.74C34.6,5.9,5.9,34.6,8.12,69.26c1.83,28.65,24.97,51.79,53.62,53.62,34.66,2.22,63.35-26.48,61.14-61.14-1.83-28.65-24.97-51.79-53.62-53.62Z"/>
      <path class="cls-1" d="m81.57,92.35l-20.57-22.54V20.3c0-2.35,1.91-4.26,4.26-4.26h0c2.35,0,4.26,1.91,4.26,4.26v46.26s18.4,20.12,18.4,20.12c1.57,1.75,1.42,4.44-.33,6.01h0c-1.75,1.57-4.44,1.42-6.01-.33Z"/>
    </g>
  </g>
</svg>