<?xml version="1.0" encoding="UTF-8"?>
<svg id="_Слой_2" data-name="Слой 2" xmlns="http://www.w3.org/2000/svg" viewBox="0 0 357 357">
  <defs>
    <style>
      .cls-1 {
        fill: #ebebeb;
      }
    </style>
  </defs>
  <g id="_Слой_1-2" data-name="Слой 1">
    <path class="cls-1" d="m178.5,243c-35.57,0-64.5-28.93-64.5-64.5s28.93-64.5,64.5-64.5,64.5,28.93,64.5,64.5-28.93,64.5-64.5,64.5Zm0-112c-26.19,0-47.5,21.31-47.5,47.5s21.31,47.5,47.5,47.5,47.5-21.31,47.5-47.5-21.31-47.5-47.5-47.5Z"/>
    <circle class="cls-1" cx="246.71" cy="110" r="14"/>
    <path class="cls-1" d="m357,178.5c0,98.58-79.92,178.5-178.5,178.5S0,277.08,0,178.5,79.92,0,178.5,0s178.5,79.92,178.5,178.5ZM117.06,62c-31.46,0-57.06,25.6-57.06,57.06v121.88c0,31.46,25.6,57.06,57.06,57.06h121.88c31.46,0,57.06-25.6,57.06-57.06v-121.88c0-31.46-25.6-57.06-57.06-57.06h-121.88Z"/>
  </g>
</svg>