<?xml version="1.0" encoding="UTF-8"?>
<svg id="_Слой_2" data-name="Слой 2" xmlns="http://www.w3.org/2000/svg" viewBox="0 0 160.32 127">
  <defs>
    <style>
      .cls-1 {
        fill: #ebebeb;
      }
    </style>
  </defs>
  <g id="_Слой_1-2" data-name="Слой 1">
    <path class="cls-1" d="m154.66,127H5.66c-3.12,0-5.66-2.54-5.66-5.66V5.66C0,2.54,2.54,0,5.66,0h149c3.12,0,5.66,2.54,5.66,5.66v115.68c0,3.12-2.54,5.66-5.66,5.66ZM8,119h144.32V8H8v111Z"/>
    <polygon class="cls-1" points="80.16 78.16 1.97 15.21 6.98 8.98 80.16 67.88 153.34 8.98 158.35 15.21 80.16 78.16"/>
    <rect class="cls-1" x="-8.24" y="87.82" width="86.84" height="8" transform="translate(-54.62 51.77) rotate(-45)"/>
    <rect class="cls-1" x="120.89" y="48.49" width="8" height="86.84" transform="translate(-28.41 115.23) rotate(-45)"/>
  </g>
</svg>