<?xml version="1.0" encoding="UTF-8"?>
<svg id="_Слой_2" data-name="Слой 2" xmlns="http://www.w3.org/2000/svg" viewBox="0 0 357 357">
  <defs>
    <style>
      .cls-1 {
        fill: #ebebeb;
      }
    </style>
  </defs>
  <g id="_Слой_1-2" data-name="Слой 1">
    <path class="cls-1" d="m357,178.5c0,98.58-79.92,178.5-178.5,178.5S0,277.08,0,178.5,79.92,0,178.5,0s178.5,79.92,178.5,178.5Zm-210,81.5c.98.48,2.4-.53,3-1,8.67-8.33,17.33-16.67,26-25,22.5,18.31,39.82,31.05,46,34,3.7,1.76,6.04,1.29,7,1,3.32-.99,5.16-4.18,6-6,10.33-48.67,20.67-97.33,31-146,.08-.56.53-4.19-2-7-2.37-2.62-6.38-3.45-10-2-58.67,22.67-117.33,45.33-176,68-.22.09-3.38,1.48-4,5-.61,3.46,1.81,5.83,2,6,16,4.67,32,9.33,48,14,26.7-17.27,99.96-64.58,104-66,2-.7,3,0,3,0,.87.61,1.03,1.92,1,3-28,25.67-56,51.33-84,77-.4,6.19-2.52,39.09-2,43,.06.46.22,1.62,1,2Z"/>
  </g>
</svg>