<?xml version="1.0" encoding="UTF-8"?>
<svg id="_Слой_2" data-name="Слой 2" xmlns="http://www.w3.org/2000/svg" viewBox="0 0 357 357">
  <defs>
    <style>
      .cls-1 {
        fill: #ebebeb;
      }
    </style>
  </defs>
  <g id="_Слой_1-2" data-name="Слой 1">
    <path class="cls-1" d="m357,178.5c0,98.58-79.92,178.5-178.5,178.5S0,277.08,0,178.5,79.92,0,178.5,0s178.5,79.92,178.5,178.5Zm-237-42.5c-1.17-2.94-9-1-36-1-.61.11-1.39.37-2,1,0,0-1.3,1.04-1,3,2,13,28.62,57.3,36,66,7.18,8.45,16.34,19.25,32,26,16.06,6.93,39,6,41,4,3-3,4-9,4-14,0-1.85,1-9,5-9,8,0,11,7,15,11,0,0,7.44,9.23,17,13,2.01.79,4,1,4,1,1.49.15,29.74.31,31,0,2.63-.64,4.31-2.94,5-5,1-3-2-12-14-22-3.29-2.74-11.09-9.84-14-13-.86-.93-1.55-1.76-2-3-.26-.71-1.04-3.22,1-8,1.35-3.16,2.75-4.53,8-11,0,0,1.57-1.94,4-5,6.06-7.64,4.68-6.68,14-20,.45-.64,1.96-2.8,3-6,.56-1.72,1.94-5.98,0-8-.68-.71-1.55-.91-2-1-7.7-1.55-39.75-.04-40,0-.47.17-1.21.46-2,1-2,5-3,8-7,17-1.67,3.76-4.03,8.26-7,13-2.37,3.79-10,17-17,17-2,0-4-3-4-6,0-12.67,1.13-38.38,1-40-.14-1.72-1.25-3.11-2-4-1.27-1.5-4.99-2-6-2h-31c-.34,0-1.06-.13-2,0-4.31.62-8.65,6.04-8,8,1,3,12-9,12,25,0,9.57-1.28,15.96-4,18-2.48,1.86-7.95-1.18-10-4-8-11-16-27-22-42Z"/>
  </g>
</svg>