<?xml version="1.0" encoding="UTF-8"?>
<svg id="_Слой_2" data-name="Слой 2" xmlns="http://www.w3.org/2000/svg" viewBox="0 0 357.2 365.22">
  <defs>
    <style>
      .cls-1 {
        fill: #ebebeb;
      }
    </style>
  </defs>
  <g id="_Слой_1-2" data-name="Слой 1">
    <path class="cls-1" d="m113.24,306.45l-29.23,7.86-41.83,11.21,11.21-41.83,5.85-23.25.32-.16c-19.04-26.81-26.08-60.69-25.36-81.79,2.22-64.68,56.81-144.5,144.5-144.5,79.81,0,144.5,64.69,144.5,144.5,0,94.77-93.72,145.52-144.5,144.5-34.43-.69-65.46-16.55-65.46-16.55l-14,31.94c23.93,11.92,50.91,18.62,79.46,18.62,98.58,0,178.5-79.92,178.5-178.5S277.28,0,178.7,0,.2,79.92.2,178.5c0,33.63,9.3,65.09,25.47,91.95h-.43S0,365.22,0,365.22l99.24-26.78"/>
    <path class="cls-1" d="m204.2,225c2.99.23,7.73-6.18,11-10,2.91-3.39,7-10,11-12,4.82-2.41,14,4,21,8s23,9,23,14c0,26.02-13,30-23,36-16,5-34,2-45-2-15.08-5.48-41.13-17.95-60-36,0,0-30-31-40-53-4-12-6-18-6-32,7-37,29-37,38-36,4.1.46,7,10,11,19,3,6,9,20,9,26,0,3-3.61,9.09-7,12-3,4-8.64,7.86-8,10,3,10,17.03,23.7,24,31,0,0,28,24,41,25Z"/>
  </g>
</svg>